<svg width="18" height="12" viewBox="0 0 18 12" fill="none" xmlns="http://www.w3.org/2000/svg">
<path fill-rule="evenodd" clip-rule="evenodd" d="M0 1C0 0.447715 0.447716 0 1 0H17C17.5523 0 18 0.447715 18 1C18 1.55228 17.5523 2 17 2H1C0.447715 2 0 1.55228 0 1ZM0 6C0 6.55228 0.447715 7 1 7H8C8.55229 7 9 6.55228 9 6C9 5.44772 8.55229 5 8 5H1C0.447715 5 0 5.44772 0 6ZM0 11C0 11.5523 0.447715 12 1 12H11C11.5523 12 12 11.5523 12 11C12 10.4477 11.5523 10 11 10H1C0.447715 10 0 10.4477 0 11Z" fill="white"/>
</svg>
